<mxfile host="app.diagrams.net" modified="2024-05-29T14:30:18.360Z" agent="Mozilla/5.0 (Windows NT 10.0; Win64; x64) AppleWebKit/537.36 (KHTML, like Gecko) Chrome/125.0.0.0 Safari/537.36" etag="Fxe8ADniB8mDOM8YD0GR" version="24.4.0" type="device">
  <diagram name="Page-1" id="NxF91PDacoMSUALJUtDx">
    <mxGraphModel dx="1077" dy="559" grid="1" gridSize="10" guides="1" tooltips="1" connect="1" arrows="1" fold="1" page="1" pageScale="1" pageWidth="850" pageHeight="1100" math="0" shadow="0">
      <root>
        <mxCell id="0" />
        <mxCell id="1" parent="0" />
      </root>
    </mxGraphModel>
  </diagram>
</mxfile>
